<mxfile host="app.diagrams.net" modified="2024-01-20T01:49:46.425Z" agent="Mozilla/5.0 (Windows NT 10.0; Win64; x64) AppleWebKit/537.36 (KHTML, like Gecko) Chrome/120.0.0.0 Safari/537.36" version="22.1.21" etag="mCcK3xi4VKJB3b_6f8-z" type="github">
  <diagram name="페이지-1" id="Wc-1QQAZittCdJHgFGNk">
    <mxGraphModel>
      <root>
        <mxCell id="0" />
        <mxCell id="1" parent="0" />
      </root>
    </mxGraphModel>
  </diagram>
</mxfile>
